<svg version="1.0" xmlns="http://www.w3.org/2000/svg"
 width="16" height="16" viewBox="0 0 64.000000 64.000000"
 preserveAspectRatio="xMidYMid meet">
<metadata>
Created by potrace 1.16, written by Peter Selinger 2001-2019
</metadata>
<defs><clipPath id="c875ba3e9e5"><path
fill="currentColor" stroke="none" d="M99 578 c-16 -130 14 -208 51 -138 29 53 70 -27 70 -135 0 -108 -41
-188 -70 -135 -12 22 -49 28 -51 8 -5 -36 -6 -125 -2 -140 5 -19 53 -26 53 -8
0 5 27 36 59 69 55 54 60 63 63 107 5 76 61 76 66 0 3 -44 8 -53 63 -107 32
-33 59 -64 59 -69 0 -18 48 -11 53 8 4 15 3 104 -2 140 -2 20 -39 14 -51 -8
-29 -53 -70 27 -70 135 0 108 41 188 70 135 37 -70 67 8 51 138 -1 14 -51 17
-51 2 0 -5 -27 -36 -59 -69 -55 -54 -60 -63 -63 -107 -5 -76 -61 -76 -66 0 -3
44 -8 53 -63 107 -32 33 -59 64 -59 69 0 15 -50 12 -51 -2z"/></clipPath></defs><path transform="translate(0.000000,64.000000) scale(0.100000,-0.100000)"
fill="currentColor" stroke="none" d="M99 578 c-16 -130 14 -208 51 -138 29 53 70 -27 70 -135 0 -108 -41
-188 -70 -135 -12 22 -49 28 -51 8 -5 -36 -6 -125 -2 -140 5 -19 53 -26 53 -8
0 5 27 36 59 69 55 54 60 63 63 107 5 76 61 76 66 0 3 -44 8 -53 63 -107 32
-33 59 -64 59 -69 0 -18 48 -11 53 8 4 15 3 104 -2 140 -2 20 -39 14 -51 -8
-29 -53 -70 27 -70 135 0 108 41 188 70 135 37 -70 67 8 51 138 -1 14 -51 17
-51 2 0 -5 -27 -36 -59 -69 -55 -54 -60 -63 -63 -107 -5 -76 -61 -76 -66 0 -3
44 -8 53 -63 107 -32 33 -59 64 -59 69 0 15 -50 12 -51 -2z" clip-path="url(#c875ba3e9e5)"/>
</svg>
