<svg version="1.0" xmlns="http://www.w3.org/2000/svg"
 width="16" height="16" viewBox="0 0 64.000000 64.000000"
 preserveAspectRatio="xMidYMid meet">
<metadata>
Created by potrace 1.16, written by Peter Selinger 2001-2019
</metadata>
<defs><clipPath id="cbc7f665c3c"><path
fill="currentColor" stroke="none" d="M260 601 c0 -30 -6 -44 -22 -56 -23 -16 -23 -16 1 -35 38 -32 21 -50
-38 -43 -42 5 -52 3 -57 -12 -7 -18 11 -36 36 -34 33 3 41 -2 38 -18 -3 -15
-15 -18 -78 -18 -102 0 -117 -38 -17 -43 80 -4 80 -30 0 -34 -100 -5 -84 -43
17 -43 63 0 75 -3 78 -17 3 -14 -3 -18 -25 -18 -38 0 -57 -14 -49 -35 5 -13
16 -16 58 -13 56 3 83 -23 39 -37 -26 -8 -27 -31 -2 -45 12 -6 21 -23 23 -43
3 -30 5 -32 43 -32 38 0 40 2 43 32 2 20 11 37 23 43 25 14 24 37 -2 45 -44
14 -17 40 39 37 42 -3 53 0 58 13 8 21 -11 35 -49 35 -22 0 -28 4 -25 17 3 15
15 18 78 18 101 0 117 38 18 43 -42 2 -58 7 -58 17 0 10 16 15 58 17 99 5 83
43 -18 43 -63 0 -75 3 -78 18 -3 13 3 17 25 17 38 0 57 14 49 35 -5 15 -15 17
-57 12 -59 -7 -76 11 -38 43 24 19 24 19 2 35 -17 12 -23 26 -23 56 0 39 0 39
-45 39 -45 0 -45 0 -45 -39z"/></clipPath></defs><path transform="translate(0.000000,64.000000) scale(0.100000,-0.100000)"
fill="currentColor" stroke="none" d="M260 601 c0 -30 -6 -44 -22 -56 -23 -16 -23 -16 1 -35 38 -32 21 -50
-38 -43 -42 5 -52 3 -57 -12 -7 -18 11 -36 36 -34 33 3 41 -2 38 -18 -3 -15
-15 -18 -78 -18 -102 0 -117 -38 -17 -43 80 -4 80 -30 0 -34 -100 -5 -84 -43
17 -43 63 0 75 -3 78 -17 3 -14 -3 -18 -25 -18 -38 0 -57 -14 -49 -35 5 -13
16 -16 58 -13 56 3 83 -23 39 -37 -26 -8 -27 -31 -2 -45 12 -6 21 -23 23 -43
3 -30 5 -32 43 -32 38 0 40 2 43 32 2 20 11 37 23 43 25 14 24 37 -2 45 -44
14 -17 40 39 37 42 -3 53 0 58 13 8 21 -11 35 -49 35 -22 0 -28 4 -25 17 3 15
15 18 78 18 101 0 117 38 18 43 -42 2 -58 7 -58 17 0 10 16 15 58 17 99 5 83
43 -18 43 -63 0 -75 3 -78 18 -3 13 3 17 25 17 38 0 57 14 49 35 -5 15 -15 17
-57 12 -59 -7 -76 11 -38 43 24 19 24 19 2 35 -17 12 -23 26 -23 56 0 39 0 39
-45 39 -45 0 -45 0 -45 -39z" clip-path="url(#cbc7f665c3c)"/>
</svg>
