<svg version="1.0" xmlns="http://www.w3.org/2000/svg"
 width="16" height="16" viewBox="0 0 64.000000 64.000000"
 preserveAspectRatio="xMidYMid meet">
<metadata>
Created by potrace 1.16, written by Peter Selinger 2001-2019
</metadata>
<defs><clipPath id="c3ff1705f72"><path
fill="currentColor" stroke="none" d="M227 544 c-4 -4 -7 -29 -7 -56 0 -37 -4 -51 -20 -60 -28 -18 -26 -60
5 -86 14 -12 25 -29 25 -37 0 -8 -11 -25 -25 -37 -30 -26 -33 -68 -6 -85 15
-9 21 -26 23 -65 5 -83 161 -84 166 -1 2 40 8 55 23 63 27 15 27 76 0 85 -37
12 -38 68 0 80 27 9 27 70 0 85 -15 8 -21 23 -23 63 -3 52 -3 52 -78 55 -42 1
-79 0 -83 -4z"/></clipPath></defs><path transform="translate(0.000000,64.000000) scale(0.100000,-0.100000)"
fill="currentColor" stroke="none" d="M227 544 c-4 -4 -7 -29 -7 -56 0 -37 -4 -51 -20 -60 -28 -18 -26 -60
5 -86 14 -12 25 -29 25 -37 0 -8 -11 -25 -25 -37 -30 -26 -33 -68 -6 -85 15
-9 21 -26 23 -65 5 -83 161 -84 166 -1 2 40 8 55 23 63 27 15 27 76 0 85 -37
12 -38 68 0 80 27 9 27 70 0 85 -15 8 -21 23 -23 63 -3 52 -3 52 -78 55 -42 1
-79 0 -83 -4z" clip-path="url(#c3ff1705f72)"/>
</svg>
