<svg version="1.0" xmlns="http://www.w3.org/2000/svg"
 width="16" height="16" viewBox="0 0 64.000000 64.000000"
 preserveAspectRatio="xMidYMid meet">
<metadata>
Created by potrace 1.16, written by Peter Selinger 2001-2019
</metadata>
<defs><clipPath id="c503e3e7f37"><path
fill="currentColor" stroke="none" d="M261 506 c-8 -10 -10 -41 -5 -105 7 -91 7 -91 -115 -91 -149 0 -151
-4 -49 -101 53 -51 79 -69 99 -69 25 0 28 -4 31 -38 5 -59 121 -59 126 1 3 33
6 37 31 37 21 0 44 16 89 60 34 33 66 60 72 60 15 0 12 50 -2 51 -7 1 -62 0
-122 -1 -109 -2 -109 -2 -102 90 7 93 0 120 -29 120 -7 0 -18 -6 -24 -14z"/></clipPath></defs><path transform="translate(0.000000,64.000000) scale(0.100000,-0.100000)"
fill="currentColor" stroke="none" d="M261 506 c-8 -10 -10 -41 -5 -105 7 -91 7 -91 -115 -91 -149 0 -151
-4 -49 -101 53 -51 79 -69 99 -69 25 0 28 -4 31 -38 5 -59 121 -59 126 1 3 33
6 37 31 37 21 0 44 16 89 60 34 33 66 60 72 60 15 0 12 50 -2 51 -7 1 -62 0
-122 -1 -109 -2 -109 -2 -102 90 7 93 0 120 -29 120 -7 0 -18 -6 -24 -14z" clip-path="url(#c503e3e7f37)"/>
</svg>
