<svg version="1.0" xmlns="http://www.w3.org/2000/svg"
 width="16" height="16" viewBox="0 0 64.000000 64.000000"
 preserveAspectRatio="xMidYMid meet">
<metadata>
Created by potrace 1.16, written by Peter Selinger 2001-2019
</metadata>
<g transform="translate(0.000000,64.000000) scale(0.100000,-0.100000)"
fill="currentColor" stroke="none">
<defs><clipPath id="c18c1e241d1"><path d="M221 576 c-7 -8 -27 -17 -46 -20 -29 -6 -35 -11 -35 -31 0 -33 73
-36 113 -5 14 11 37 20 52 20 15 0 38 -9 52 -20 40 -31 113 -28 113 5 0 20 -6
25 -35 31 -19 3 -39 12 -46 20 -8 10 -34 14 -84 14 -50 0 -76 -4 -84 -14z"/></clipPath></defs><path d="M221 576 c-7 -8 -27 -17 -46 -20 -29 -6 -35 -11 -35 -31 0 -33 73
-36 113 -5 14 11 37 20 52 20 15 0 38 -9 52 -20 40 -31 113 -28 113 5 0 20 -6
25 -35 31 -19 3 -39 12 -46 20 -8 10 -34 14 -84 14 -50 0 -76 -4 -84 -14z" clip-path="url(#c18c1e241d1)"/>
<path d="M54 435 c-3 -19 -12 -39 -20 -46 -19 -16 -19 -152 0 -168 8 -7 17
-27 20 -46 6 -29 11 -35 31 -35 33 0 36 73 5 113 -11 14 -20 37 -20 52 0 15 9
38 20 52 31 40 28 113 -5 113 -20 0 -25 -6 -31 -35z"/>
<path d="M500 426 c0 -28 7 -52 20 -69 11 -14 20 -37 20 -52 0 -15 -9 -38 -20
-52 -31 -40 -28 -113 5 -113 20 0 25 6 31 35 3 19 12 39 20 46 19 16 19 152 0
168 -8 7 -17 27 -20 46 -11 58 -56 51 -56 -9z"/>
<path d="M200 410 c-30 -30 -30 -180 0 -210 30 -30 180 -30 210 0 31 31 30
192 -2 214 -36 25 -182 22 -208 -4z"/>
<path d="M140 85 c0 -20 6 -25 35 -31 19 -3 39 -12 46 -20 16 -19 152 -19 168
0 7 8 27 17 46 20 29 6 35 11 35 31 0 33 -73 36 -113 5 -32 -25 -72 -25 -104
0 -40 31 -113 28 -113 -5z"/>
</g>
</svg>
