<svg version="1.0" xmlns="http://www.w3.org/2000/svg"
 width="16" height="16" viewBox="0 0 64.000000 64.000000"
 preserveAspectRatio="xMidYMid meet">
<metadata>
Created by potrace 1.16, written by Peter Selinger 2001-2019
</metadata>
<defs><clipPath id="cc913d959da"><path
fill="currentColor" stroke="none" d="M265 543 c-13 -12 -15 -26 -10 -59 5 -36 3 -44 -13 -53 -38 -20 -38
-84 -1 -94 26 -7 26 -57 0 -64 -37 -10 -37 -74 1 -94 16 -9 18 -17 13 -53 -8
-49 10 -76 50 -76 40 0 58 27 50 76 -5 36 -3 44 13 53 38 20 38 84 1 94 -25 7
-26 55 -1 64 39 15 43 54 7 87 -22 20 -25 29 -19 63 10 63 -48 99 -91 56z m70
-178 c0 -12 -31 -19 -51 -11 -8 3 -12 11 -9 17 8 13 60 8 60 -6z m0 -120 c0
-12 -31 -19 -51 -11 -8 3 -12 11 -9 17 8 13 60 8 60 -6z"/></clipPath></defs><path transform="translate(0.000000,64.000000) scale(0.100000,-0.100000)"
fill="currentColor" stroke="none" d="M265 543 c-13 -12 -15 -26 -10 -59 5 -36 3 -44 -13 -53 -38 -20 -38
-84 -1 -94 26 -7 26 -57 0 -64 -37 -10 -37 -74 1 -94 16 -9 18 -17 13 -53 -8
-49 10 -76 50 -76 40 0 58 27 50 76 -5 36 -3 44 13 53 38 20 38 84 1 94 -25 7
-26 55 -1 64 39 15 43 54 7 87 -22 20 -25 29 -19 63 10 63 -48 99 -91 56z m70
-178 c0 -12 -31 -19 -51 -11 -8 3 -12 11 -9 17 8 13 60 8 60 -6z m0 -120 c0
-12 -31 -19 -51 -11 -8 3 -12 11 -9 17 8 13 60 8 60 -6z" clip-path="url(#cc913d959da)"/>
</svg>
