<svg version="1.0" xmlns="http://www.w3.org/2000/svg"
 width="16" height="16" viewBox="0 0 64.000000 64.000000"
 preserveAspectRatio="xMidYMid meet">
<metadata>
Created by potrace 1.16, written by Peter Selinger 2001-2019
</metadata>
<g transform="translate(0.000000,64.000000) scale(0.100000,-0.100000)"
fill="currentColor" stroke="none">
<defs><clipPath id="c2cce20071e"><path d="M393 513 c-19 -7 -18 -409 0 -416 35 -13 39 7 39 199 0 104 -1 194
-1 200 -1 14 -21 23 -38 17z"/></clipPath></defs><path d="M393 513 c-19 -7 -18 -409 0 -416 35 -13 39 7 39 199 0 104 -1 194
-1 200 -1 14 -21 23 -38 17z" clip-path="url(#c2cce20071e)"/>
<path d="M139 498 c0 -14 0 -378 1 -390 0 -5 11 -8 25 -8 25 0 25 0 25 205 0
205 0 205 -25 205 -14 0 -25 -6 -26 -12z"/>
<path d="M230 491 c-6 -11 -10 -90 -10 -186 0 -195 3 -205 65 -205 62 0 65 10
65 205 0 195 -3 205 -65 205 -34 0 -47 -5 -55 -19z"/>
</g>
</svg>
