<svg version="1.0" xmlns="http://www.w3.org/2000/svg"
 width="16" height="16" viewBox="0 0 64.000000 64.000000"
 preserveAspectRatio="xMidYMid meet">
<metadata>
Created by potrace 1.16, written by Peter Selinger 2001-2019
</metadata>
<defs><clipPath id="c39a871ba1c"><path
fill="currentColor" stroke="none" d="M263 465 c-51 -53 -62 -136 -23 -175 11 -11 20 -31 20 -45 0 -14 7
-28 15 -31 8 -4 15 -17 15 -29 0 -20 23 -55 35 -55 12 0 35 35 35 55 0 12 7
25 15 29 8 3 15 17 15 31 0 14 9 34 20 45 40 40 28 124 -24 176 -54 55 -70 54
-123 -1z"/></clipPath></defs><path transform="translate(0.000000,64.000000) scale(0.100000,-0.100000)"
fill="currentColor" stroke="none" d="M263 465 c-51 -53 -62 -136 -23 -175 11 -11 20 -31 20 -45 0 -14 7
-28 15 -31 8 -4 15 -17 15 -29 0 -20 23 -55 35 -55 12 0 35 35 35 55 0 12 7
25 15 29 8 3 15 17 15 31 0 14 9 34 20 45 40 40 28 124 -24 176 -54 55 -70 54
-123 -1z" clip-path="url(#c39a871ba1c)"/>
</svg>
