<?xml version="1.0" standalone="no"?>
<!DOCTYPE svg PUBLIC "-//W3C//DTD SVG 20010904//EN"
 "http://www.w3.org/TR/2001/REC-SVG-20010904/DTD/svg10.dtd">
<svg version="1.0" xmlns="http://www.w3.org/2000/svg"
 width="31" height="54" viewBox="0 0 124.000000 216.000000"
 preserveAspectRatio="xMidYMid meet">
<metadata>
Created by potrace 1.16, written by Peter Selinger 2001-2019
</metadata>
<g transform="translate(0.000000,216.000000) scale(0.100000,-0.100000)"
fill="currentColor" stroke="none">
<path d="M783 2067 c-56 -42 -161 -110 -185 -119 -25 -10 -23 -33 7 -52 14 -9
45 -37 71 -62 25 -26 58 -49 72 -53 34 -9 99 -104 134 -197 108 -283 66 -534
-132 -785 -58 -73 -84 -99 -155 -154 -14 -11 -40 -33 -58 -48 -38 -35 -214
-152 -277 -185 -99 -53 -189 -96 -223 -106 -23 -7 -22 -42 4 -63 46 -40 132
-131 161 -171 31 -41 68 -56 83 -32 4 6 21 17 38 25 18 8 50 26 72 40 22 13
47 27 55 31 24 12 94 58 105 70 6 5 30 23 55 39 25 16 52 36 61 45 9 8 54 49
100 90 122 109 161 152 215 233 26 40 52 77 58 82 27 25 66 95 81 145 10 30
26 72 36 92 14 27 19 58 19 120 0 87 8 108 42 108 16 0 18 12 18 135 0 127 -1
135 -19 135 -28 0 -32 12 -41 104 -16 163 -110 345 -265 514 -57 61 -74 63
-132 19z"/>
</g>
</svg>
