<?xml version="1.0" standalone="no"?>
<!DOCTYPE svg PUBLIC "-//W3C//DTD SVG 20010904//EN"
 "http://www.w3.org/TR/2001/REC-SVG-20010904/DTD/svg10.dtd">
<svg version="1.0" xmlns="http://www.w3.org/2000/svg"
 width="16" height="40" viewBox="0 0 64.000000 160.000000"
 preserveAspectRatio="xMidYMid meet">
<metadata>
Created by potrace 1.16, written by Peter Selinger 2001-2019
</metadata>
<g transform="translate(0.000000,160.000000) scale(0.100000,-0.100000)"
fill="currentColor" stroke="none">
<path d="M340 1583 c0 -10 -27 -45 -58 -78 -149 -155 -236 -327 -252 -493 -4
-46 -13 -89 -19 -95 -15 -15 -15 -249 0 -264 6 -6 15 -49 19 -95 16 -166 107
-342 259 -500 63 -66 79 -70 131 -28 21 17 42 30 48 30 5 0 36 20 68 45 31 25
68 45 81 45 14 0 23 6 23 15 0 9 -9 15 -21 15 -19 0 -119 93 -119 111 0 5 -15
11 -33 14 -45 9 -140 162 -162 260 -4 17 -13 47 -21 68 -20 54 -19 247 2 312
58 182 130 309 179 320 19 4 46 26 75 60 26 32 56 57 73 61 33 8 36 34 4 34
-13 0 -50 20 -81 45 -32 25 -63 45 -68 45 -20 0 -78 53 -78 71 0 14 -7 19 -25
19 -17 0 -25 -6 -25 -17z"/>
</g>
</svg>
