<?xml version="1.0" standalone="no"?>
<!DOCTYPE svg PUBLIC "-//W3C//DTD SVG 20010904//EN"
 "http://www.w3.org/TR/2001/REC-SVG-20010904/DTD/svg10.dtd">
<svg version="1.0" xmlns="http://www.w3.org/2000/svg"
 width="16" height="40" viewBox="0 0 64.000000 160.000000"
 preserveAspectRatio="xMidYMid meet">
<metadata>
Created by potrace 1.16, written by Peter Selinger 2001-2019
</metadata>
<g transform="translate(0.000000,160.000000) scale(0.100000,-0.100000)"
fill="currentColor" stroke="none">
<path d="M220 1581 c0 -18 -58 -71 -78 -71 -5 0 -36 -20 -68 -45 -31 -25 -61
-45 -66 -45 -21 0 -3 -32 47 -79 30 -29 55 -57 55 -61 0 -5 15 -12 34 -15 51
-10 119 -131 180 -320 21 -65 22 -258 2 -312 -8 -21 -17 -51 -21 -68 -22 -99
-116 -251 -161 -259 -18 -4 -34 -11 -34 -16 0 -4 -25 -33 -55 -63 -51 -51 -67
-77 -46 -77 5 0 35 -20 67 -45 31 -25 62 -45 67 -45 5 0 26 -14 47 -30 53 -42
69 -39 137 34 151 159 237 327 253 492 9 92 13 104 41 104 18 0 19 8 19 125 0
117 -1 125 -19 125 -28 0 -32 12 -41 104 -16 164 -104 337 -252 491 -31 33
-58 68 -58 78 0 11 -8 17 -25 17 -18 0 -25 -5 -25 -19z"/>
</g>
</svg>
