<?xml version="1.0" standalone="no"?>
<!DOCTYPE svg PUBLIC "-//W3C//DTD SVG 20010904//EN"
 "http://www.w3.org/TR/2001/REC-SVG-20010904/DTD/svg10.dtd">
<svg version="1.0" xmlns="http://www.w3.org/2000/svg"
 width="30" height="10" viewBox="0 0 120.000000 40.000000"
 preserveAspectRatio="xMidYMid meet">
<metadata>
Created by potrace 1.16, written by Peter Selinger 2001-2019
</metadata>
<g transform="translate(0.000000,40.000000) scale(0.100000,-0.100000)"
fill="currentColor" stroke="none">
<path d="M63 308 c-19 -33 -48 -132 -60 -205 -4 -28 -1 -34 28 -49 70 -37
1037 -38 1106 -1 18 9 39 17 48 17 10 0 15 10 15 30 0 23 -4 30 -20 30 -19 0
-27 18 -45 109 -21 101 -103 131 -232 84 -64 -24 -582 -27 -622 -4 -60 34
-196 27 -218 -11z"/>
</g>
</svg>
